<svg xmlns="http://www.w3.org/2000/svg" width="1em" height="1em" viewBox="0 0 512.002 512.002" fill="currentColor"><path d="M479.509,46.933C463.173,6.098,439.585,0,426.978,0c-0.275,0-0.561,0.006-0.845,0.013c-0.033,0.002-0.069,0-0.103,0.002c-5.731,0.138-13.469,1.577-21.699,6.687L108.877,112.221c-50.616,2.197-91.122,44.049-91.122,95.197c0,52.549,42.753,95.302,95.303,95.302h74.743v44.846H114.92c-12.383,0-22.423,10.039-22.423,22.423v89.693c0,12.383,10.039,22.423,22.423,22.423h22.423v7.474c0,12.383,10.039,22.423,22.423,22.423c12.384,0,22.423-10.039,22.423-22.423v-7.474h147.623v7.474c0,12.383,10.039,22.423,22.423,22.423c12.384,0,22.423-10.039,22.423-22.423v-7.474h22.423c12.383,0,22.423-10.039,22.423-22.423v-89.693c0-12.383-10.039-22.423-22.423-22.423H232.646V302.72h37.372c12.383,0,22.423-10.039,22.423-22.423c0-12.384-10.039-22.423-22.423-22.423h-156.96c-27.822,0-50.458-22.635-50.458-50.456c0-26.643,20.761-48.514,46.954-50.321l294.774,105.277c8.586,5.331,16.636,6.667,22.433,6.698c0.072,0.001,0.145,0.009,0.217,0.009c0.085,0,0.166-0.009,0.251-0.009c12.666-0.079,36.049-6.358,52.28-46.928c9.503-23.762,14.738-54.873,14.738-87.605C494.247,101.807,489.011,70.695,479.509,46.933z M374.658,392.41v44.847H137.342V392.41H374.658z M367.796,201.706l-188.07-67.169l188.07-67.169c-5.259,20.01-8.087,43.148-8.087,67.169C359.709,158.558,362.539,181.694,367.796,201.706z M427.653,223.084l-2.097-0.749c-7.697-8.267-21.001-38.369-21.001-87.798c0-49.429,13.303-79.531,21.001-87.798l2.097-0.749c7.549,7.045,21.747,37.482,21.747,88.547C449.401,185.602,435.202,216.039,427.653,223.084z"/></svg>
