<svg xmlns="http://www.w3.org/2000/svg" width="1em" height="1em" viewBox="0 0 24 24"><path fill="currentColor" fill-rule="evenodd" d="M14.279 2.152C13.909 2 13.439 2 12.5 2s-1.408 0-1.779.152a2 2 0 0 0-1.09 1.083c-.094.223-.13.484-.145.863a1.62 1.62 0 0 1-.796 1.353a1.64 1.64 0 0 1-1.579.008c-.34-.178-.62-.297-.916-.337a2 2 0 0 0-1.492.398c-.325.256-.556.657-1.017 1.458c-.461.8-.692 1.201-.744 1.61a2 2 0 0 0 .418 1.469c.185.239.44.42.775.631c.503.317.827.865.827 1.464c0 .6-.324 1.148-.827 1.465c-.335.21-.59.392-.775.63a2 2 0 0 0-.418 1.47c.052.409.283.81.744 1.61c.461.8.692 1.201 1.017 1.457a2 2 0 0 0 1.492.398c.295-.04.575-.16.916-.337a1.64 1.64 0 0 1 1.579.008c.49.285.79.811.796 1.353c.015.38.051.64.145.863a2 2 0 0 0 1.09 1.083C11.092 22 11.561 22 12.5 22s1.408 0 1.779-.152a2 2 0 0 0 1.09-1.083c.094-.223.13-.483.145-.863a1.62 1.62 0 0 1 .796-1.353a1.64 1.64 0 0 1 1.579-.008c.34.178.62.297.916.337a2 2 0 0 0 1.492-.398c.325-.256.556-.657 1.017-1.458c.461-.8.692-1.2.744-1.609a2 2 0 0 0-.418-1.47c-.185-.239-.44-.42-.775-.63c-.503-.318-.827-.866-.827-1.465c0-.6.324-1.147.827-1.464c.335-.21.59-.392.775-.631a2 2 0 0 0 .418-1.47c-.052-.408-.283-.809-.744-1.609c-.461-.8-.692-1.202-1.017-1.458a2 2 0 0 0-1.492-.398c-.295.04-.575.16-.916.337a1.64 1.64 0 0 1-1.579-.008a1.62 1.62 0 0 1-.796-1.353c-.015-.38-.051-.64-.145-.863a2 2 0 0 0-1.09-1.083M12.5 15a3 3 0 1 0 0-6a3 3 0 0 0 0 6" clip-rule="evenodd"/></svg>
