<svg xmlns="http://www.w3.org/2000/svg" xmlns:xlink="http://www.w3.org/1999/xlink" version="1.1" width="256" height="256" viewBox="0 0 256 256" xml:space="preserve">
<g style="stroke: none; stroke-width: 0; stroke-dasharray: none; stroke-linecap: butt; stroke-linejoin: miter; stroke-miterlimit: 10; fill: none; fill-rule: nonzero; opacity: 1;" transform="translate(1.4065934065934016 1.4065934065934016) scale(2.81 2.81)">
	<path d="M 87.755 35.445 c 4.161 -8.745 2.474 -19.411 -4.532 -26.418 c -4.389 -4.389 -10.223 -6.806 -16.431 -6.806 c -6.206 0 -12.042 2.417 -16.431 6.806 l -4.597 4.597 c -0.408 0.408 -1.12 0.408 -1.53 0 l -4.597 -4.597 c -4.389 -4.389 -10.224 -6.806 -16.431 -6.806 C 17 2.221 11.165 4.638 6.777 9.027 c -7.005 7.005 -8.693 17.674 -4.532 26.418 c -0.273 0.167 -0.531 0.361 -0.756 0.597 c -0.826 0.862 -1.192 2.078 -0.993 3.165 l 2.438 17.879 c 1.125 6.212 4.085 11.849 8.561 16.302 l 5.019 4.992 c 0.661 0.658 1.025 1.533 1.025 2.465 v 1.785 c 0 2.839 2.309 5.148 5.148 5.148 h 13.477 c 2.838 0 5.147 -2.309 5.147 -5.148 v -4.962 c 0 -0.37 0.038 -0.758 0.097 -1.149 l 0.132 0.132 c 0.954 0.954 2.207 1.432 3.46 1.432 c 1.253 0 2.507 -0.478 3.46 -1.432 l 0.132 -0.132 c 0.058 0.392 0.097 0.78 0.097 1.149 v 4.962 c 0 2.839 2.309 5.148 5.148 5.148 h 13.476 c 2.839 0 5.148 -2.309 5.148 -5.148 v -1.785 c 0 -0.932 0.364 -1.808 1.025 -2.465 l 5.019 -4.992 c 4.476 -4.451 7.436 -10.089 8.575 -16.389 l 2.41 -17.705 c 0.213 -1.174 -0.153 -2.389 -0.978 -3.252 C 88.285 35.807 88.028 35.612 87.755 35.445 z M 37.308 77.669 v 4.962 c 0 0.631 -0.514 1.145 -1.145 1.145 H 22.686 c -0.631 0 -1.145 -0.514 -1.145 -1.145 v -1.785 c 0 -2.005 -0.783 -3.888 -2.205 -5.303 l -5.019 -4.992 c -3.893 -3.873 -6.468 -8.774 -7.432 -14.09 L 4.499 38.955 c 4.154 0.973 8.447 9.125 9.494 18.177 c 0.097 0.838 0.708 1.525 1.529 1.718 c 4.261 1.004 7.582 3.888 8.544 6.093 c 0.441 1.013 1.622 1.475 2.634 1.034 c 1.013 -0.442 1.477 -1.621 1.034 -2.635 c -0.151 -0.347 -0.335 -0.69 -0.535 -1.031 l 10.936 10.936 C 37.609 74.66 37.308 76.231 37.308 77.669 z M 17.234 52.346 l 5.196 5.196 c -1.413 -0.922 -2.991 -1.685 -4.638 -2.212 C 17.644 54.333 17.452 53.336 17.234 52.346 z M 44.369 73.822 L 14.281 43.732 c -1.901 -3.851 -4.424 -6.885 -7.433 -8.182 c -4.649 -7.523 -3.538 -17.395 2.759 -23.693 c 3.633 -3.633 8.463 -5.634 13.601 -5.634 s 9.967 2.001 13.601 5.634 l 4.596 4.597 c 0.96 0.961 2.237 1.49 3.596 1.49 s 2.635 -0.529 3.595 -1.49 l 4.597 -4.597 c 3.633 -3.633 8.463 -5.634 13.601 -5.634 c 5.138 0 9.967 2.001 13.601 5.634 c 6.298 6.299 7.409 16.169 2.76 23.692 c -3.011 1.297 -5.535 4.333 -7.436 8.185 L 45.63 73.822 C 45.282 74.169 44.717 74.169 44.369 73.822 z M 72.765 52.346 c -0.218 0.99 -0.41 1.987 -0.558 2.984 c -1.647 0.527 -3.225 1.29 -4.638 2.212 L 72.765 52.346 z M 83.128 56.373 c -0.979 5.404 -3.553 10.305 -7.445 14.177 l -5.02 4.992 c -1.422 1.416 -2.205 3.299 -2.205 5.303 v 1.785 c 0 0.631 -0.514 1.145 -1.145 1.145 H 53.836 c -0.631 0 -1.145 -0.514 -1.145 -1.145 v -4.962 c 0 -1.439 -0.301 -3.009 -0.827 -4.421 l 10.937 -10.937 c -0.201 0.341 -0.385 0.685 -0.536 1.033 c -0.442 1.012 0.021 2.192 1.035 2.634 c 1.011 0.445 2.191 -0.021 2.634 -1.035 c 0.962 -2.204 4.282 -5.088 8.544 -6.092 c 0.821 -0.193 1.433 -0.88 1.529 -1.718 c 1.047 -9.052 5.338 -17.202 9.492 -18.177 L 83.128 56.373 z" style="stroke: none; stroke-width: 1; stroke-dasharray: none; stroke-linecap: butt; stroke-linejoin: miter; stroke-miterlimit: 10; fill: rgb(0,0,0); fill-rule: nonzero; opacity: 1;" transform=" matrix(1 0 0 1 0 0) " stroke-linecap="round"/>
</g>
</svg>