<?xml version="1.0" encoding="UTF-8" standalone="no"?>
<!-- Created with Inkscape (http://www.inkscape.org/) -->

<svg
   version="1.1"
   id="svg1"
   width="4000"
   height="4000"
   viewBox="0 0 4000 4000"
   sodipodi:docname="Sun Shiny Logo-10eps-01.eps"
   xmlns:inkscape="http://www.inkscape.org/namespaces/inkscape"
   xmlns:sodipodi="http://sodipodi.sourceforge.net/DTD/sodipodi-0.dtd"
   xmlns="http://www.w3.org/2000/svg"
   xmlns:svg="http://www.w3.org/2000/svg">
  <defs
     id="defs1">
    <linearGradient
       x1="0"
       y1="0"
       x2="1"
       y2="0"
       gradientUnits="userSpaceOnUse"
       gradientTransform="matrix(-505.122,-1885.14,1885.14,-505.122,16176.5,16941.1)"
       spreadMethod="pad"
       id="linearGradient6">
      <stop
         style="stop-opacity:1;stop-color:#f79431"
         offset="0"
         id="stop4" />
      <stop
         style="stop-opacity:1;stop-color:#f25b1e"
         offset="0.487014"
         id="stop5" />
      <stop
         style="stop-opacity:1;stop-color:#d12e23"
         offset="1"
         id="stop6" />
    </linearGradient>
    <clipPath
       clipPathUnits="userSpaceOnUse"
       id="clipPath6">
      <path
         d="m 15510.9,15404 v 1500.3 h 802.9 v -1897.8 h -405.4 c -219.5,0 -397.5,178 -397.5,397.5 z"
         id="path6" />
    </clipPath>
    <linearGradient
       x1="0"
       y1="0"
       x2="1"
       y2="0"
       gradientUnits="userSpaceOnUse"
       gradientTransform="matrix(-505.122,-1885.14,1885.14,-505.122,14328.6,18752.6)"
       spreadMethod="pad"
       id="linearGradient9">
      <stop
         style="stop-opacity:1;stop-color:#f79431"
         offset="0"
         id="stop7" />
      <stop
         style="stop-opacity:1;stop-color:#f25b1e"
         offset="0.487014"
         id="stop8" />
      <stop
         style="stop-opacity:1;stop-color:#d12e23"
         offset="1"
         id="stop9" />
    </linearGradient>
    <clipPath
       clipPathUnits="userSpaceOnUse"
       id="clipPath9">
      <path
         d="m 14489.1,16904.3 h -802.9 V 18802 h 405.4 c 219.5,0 397.5,-177.9 397.5,-397.4 z"
         id="path9" />
    </clipPath>
    <linearGradient
       x1="0"
       y1="0"
       x2="1"
       y2="0"
       gradientUnits="userSpaceOnUse"
       gradientTransform="matrix(1885.14,-505.122,505.122,1885.14,14963.2,18080.7)"
       spreadMethod="pad"
       id="linearGradient12">
      <stop
         style="stop-opacity:1;stop-color:#f79431"
         offset="0"
         id="stop10" />
      <stop
         style="stop-opacity:1;stop-color:#f25b1e"
         offset="0.487014"
         id="stop11" />
      <stop
         style="stop-opacity:1;stop-color:#d12e23"
         offset="1"
         id="stop12" />
    </linearGradient>
    <clipPath
       clipPathUnits="userSpaceOnUse"
       id="clipPath12">
      <path
         d="M 16500.3,17415.2 H 15000 v 802.9 h 1897.7 v -405.5 c 0,-219.5 -177.9,-397.4 -397.4,-397.4 z"
         id="path12" />
    </clipPath>
    <linearGradient
       x1="0"
       y1="0"
       x2="1"
       y2="0"
       gradientUnits="userSpaceOnUse"
       gradientTransform="matrix(1885.14,-505.122,505.122,1885.14,13151.7,16232.9)"
       spreadMethod="pad"
       id="linearGradient15">
      <stop
         style="stop-opacity:1;stop-color:#f79431"
         offset="0"
         id="stop13" />
      <stop
         style="stop-opacity:1;stop-color:#f25b1e"
         offset="0.487014"
         id="stop14" />
      <stop
         style="stop-opacity:1;stop-color:#d12e23"
         offset="1"
         id="stop15" />
    </linearGradient>
    <clipPath
       clipPathUnits="userSpaceOnUse"
       id="clipPath15">
      <path
         d="m 15000,16393.3 v -802.9 h -1897.7 v 405.5 c 0,219.5 177.9,397.4 397.4,397.4 z"
         id="path15" />
    </clipPath>
    <linearGradient
       x1="0"
       y1="0"
       x2="1"
       y2="0"
       gradientUnits="userSpaceOnUse"
       gradientTransform="matrix(-1690.17,-975.821,975.821,-1690.17,15857.9,16098.4)"
       spreadMethod="pad"
       id="linearGradient18">
      <stop
         style="stop-opacity:1;stop-color:#f79431"
         offset="0"
         id="stop16" />
      <stop
         style="stop-opacity:1;stop-color:#f25b1e"
         offset="0.487014"
         id="stop17" />
      <stop
         style="stop-opacity:1;stop-color:#d12e23"
         offset="1"
         id="stop18" />
    </linearGradient>
    <clipPath
       clipPathUnits="userSpaceOnUse"
       id="clipPath18">
      <path
         d="m 14300.4,15482.1 1060.9,1060.9 567.7,-567.7 -1341.9,-1341.9 -286.7,286.7 c -155.2,155.2 -155.2,406.8 0,562 z"
         id="path18" />
    </clipPath>
    <linearGradient
       x1="0"
       y1="0"
       x2="1"
       y2="0"
       gradientUnits="userSpaceOnUse"
       gradientTransform="matrix(-1690.17,-975.822,975.822,-1690.17,15832.3,18686)"
       spreadMethod="pad"
       id="linearGradient21">
      <stop
         style="stop-opacity:1;stop-color:#f79431"
         offset="0"
         id="stop19" />
      <stop
         style="stop-opacity:1;stop-color:#f25b1e"
         offset="0.487014"
         id="stop20" />
      <stop
         style="stop-opacity:1;stop-color:#d12e23"
         offset="1"
         id="stop21" />
    </linearGradient>
    <clipPath
       clipPathUnits="userSpaceOnUse"
       id="clipPath21">
      <path
         d="m 14638.7,17265.5 -567.7,567.8 1341.9,1341.9 286.7,-286.7 c 155.2,-155.2 155.2,-406.9 0,-562.1 z"
         id="path21" />
    </clipPath>
    <linearGradient
       x1="0"
       y1="0"
       x2="1"
       y2="0"
       gradientUnits="userSpaceOnUse"
       gradientTransform="matrix(975.822,-1690.17,1690.17,975.822,15805.9,17762.2)"
       spreadMethod="pad"
       id="linearGradient24">
      <stop
         style="stop-opacity:1;stop-color:#f79431"
         offset="0"
         id="stop22" />
      <stop
         style="stop-opacity:1;stop-color:#f25b1e"
         offset="0.487014"
         id="stop23" />
      <stop
         style="stop-opacity:1;stop-color:#d12e23"
         offset="1"
         id="stop24" />
    </linearGradient>
    <clipPath
       clipPathUnits="userSpaceOnUse"
       id="clipPath24">
      <path
         d="m 16422.2,16204.7 -1060.9,1060.8 567.7,567.8 1341.9,-1341.9 -286.7,-286.7 c -155.2,-155.2 -406.8,-155.2 -562,0 z"
         id="path24" />
    </clipPath>
    <linearGradient
       x1="0"
       y1="0"
       x2="1"
       y2="0"
       gradientUnits="userSpaceOnUse"
       gradientTransform="matrix(975.821,-1690.17,1690.17,975.821,13218.3,17736.5)"
       spreadMethod="pad"
       id="linearGradient27">
      <stop
         style="stop-opacity:1;stop-color:#f79431"
         offset="0"
         id="stop25" />
      <stop
         style="stop-opacity:1;stop-color:#f25b1e"
         offset="0.487014"
         id="stop26" />
      <stop
         style="stop-opacity:1;stop-color:#d12e23"
         offset="1"
         id="stop27" />
    </linearGradient>
    <clipPath
       clipPathUnits="userSpaceOnUse"
       id="clipPath27">
      <path
         d="m 14638.7,16543 -567.7,-567.7 -1341.9,1341.8 286.7,286.7 c 155.2,155.3 406.8,155.3 562,0 z"
         id="path27" />
    </clipPath>
    <linearGradient
       x1="0"
       y1="0"
       x2="1"
       y2="0"
       gradientUnits="userSpaceOnUse"
       gradientTransform="matrix(-2276.15,-1314.14,1314.14,-2276.15,16138.1,17561.3)"
       spreadMethod="pad"
       id="linearGradient30">
      <stop
         style="stop-opacity:1;stop-color:#f79431"
         offset="0"
         id="stop28" />
      <stop
         style="stop-opacity:1;stop-color:#f25b1e"
         offset="0.487014"
         id="stop29" />
      <stop
         style="stop-opacity:1;stop-color:#d12e23"
         offset="1"
         id="stop30" />
    </linearGradient>
    <clipPath
       clipPathUnits="userSpaceOnUse"
       id="clipPath30">
      <path
         d="m 14594.7,17215.6 c 206.6,266.1 604,266.1 810.6,0 140.7,-181.3 140.7,-441.4 0,-622.7 -206.6,-266.1 -604,-266.1 -810.6,0 -140.7,181.3 -140.7,441.4 0,622.7 z m -461.4,676.1 c -596.1,-525.2 -596.1,-1449.7 0,-1974.9 491.5,-433.1 1241.9,-433.1 1733.4,0 596.1,525.2 596.1,1449.7 0,1974.9 -491.5,433.1 -1241.9,433.1 -1733.4,0 z"
         id="path30" />
    </clipPath>
  </defs>
  <sodipodi:namedview
     id="namedview1"
     pagecolor="#ffffff"
     bordercolor="#000000"
     borderopacity="0.25"
     inkscape:showpageshadow="2"
     inkscape:pageopacity="0.0"
     inkscape:pagecheckerboard="0"
     inkscape:deskcolor="#d1d1d1">
    <inkscape:page
       x="0"
       y="0"
       inkscape:label="1"
       id="page1"
       width="4000"
       height="4000"
       margin="0"
       bleed="0" />
  </sodipodi:namedview>
  <g
     id="g1"
     inkscape:groupmode="layer"
     inkscape:label="1">
    <g
       id="group-R5">
      <text
         id="text2"
         xml:space="preserve"
         transform="matrix(1.3333333,0,0,1.3333333,1088.9467,2413.6267)"><tspan
           id="tspan2"
           style="font-variant:normal;font-weight:normal;font-size:311.457px;font-family:Sansation-Regular;writing-mode:lr-tb;fill:#231f20;fill-opacity:1;fill-rule:nonzero;stroke:none"
           x="0"
           y="0">Sun</tspan><tspan
           id="tspan3"
           style="font-variant:normal;font-weight:bold;font-size:311.457px;font-family:Sansation-Bold;writing-mode:lr-tb;fill:#231f20;fill-opacity:1;fill-rule:nonzero;stroke:none"
           x="562.69"
           y="0">Shiny</tspan></text>
      <text
         id="text3"
         xml:space="preserve"
         transform="matrix(1.3333333,0,0,1.3333333,1358.3067,2556.4)"><tspan
           id="tspan4"
           style="font-variant:normal;font-weight:normal;font-size:95.1675px;font-family:Sansation-Regular;writing-mode:lr-tb;fill:#393536;fill-opacity:1;fill-rule:nonzero;stroke:none"
           x="0"
           dx="0 19.080227 19.02722 19.066427 18.994196 19.052629 19.069855 19.004284 19.046824 19.005236 18.99353 19.026743 18.995338 19.052534"
           y="0">company slogan</tspan></text>
      <path
         id="path4"
         d="m 15510.9,15404 v 1500.3 h 802.9 v -1897.8 h -405.4 c -219.5,0 -397.5,178 -397.5,397.5"
         style="fill:url(#linearGradient6);fill-opacity:1;fill-rule:nonzero;stroke:none"
         transform="matrix(0.13333333,0,0,-0.13333333,0,4000)"
         clip-path="url(#clipPath6)" />
      <path
         id="path7"
         d="m 14489.1,16904.3 h -802.9 V 18802 h 405.4 c 219.5,0 397.5,-177.9 397.5,-397.4 v -1500.3"
         style="fill:url(#linearGradient9);fill-opacity:1;fill-rule:nonzero;stroke:none"
         transform="matrix(0.13333333,0,0,-0.13333333,0,4000)"
         clip-path="url(#clipPath9)" />
      <path
         id="path10"
         d="M 16500.3,17415.2 H 15000 v 802.9 h 1897.7 v -405.5 c 0,-219.5 -177.9,-397.4 -397.4,-397.4"
         style="fill:url(#linearGradient12);fill-opacity:1;fill-rule:nonzero;stroke:none"
         transform="matrix(0.13333333,0,0,-0.13333333,0,4000)"
         clip-path="url(#clipPath12)" />
      <path
         id="path13"
         d="m 15000,16393.3 v -802.9 h -1897.7 v 405.5 c 0,219.5 177.9,397.4 397.4,397.4 H 15000"
         style="fill:url(#linearGradient15);fill-opacity:1;fill-rule:nonzero;stroke:none"
         transform="matrix(0.13333333,0,0,-0.13333333,0,4000)"
         clip-path="url(#clipPath15)" />
      <path
         id="path16"
         d="m 14300.4,15482.1 1060.9,1060.9 567.7,-567.7 -1341.9,-1341.9 -286.7,286.7 c -155.2,155.2 -155.2,406.8 0,562"
         style="fill:url(#linearGradient18);fill-opacity:1;fill-rule:nonzero;stroke:none"
         transform="matrix(0.13333333,0,0,-0.13333333,0,4000)"
         clip-path="url(#clipPath18)" />
      <path
         id="path19"
         d="m 14638.7,17265.5 -567.7,567.8 1341.9,1341.9 286.7,-286.7 c 155.2,-155.2 155.2,-406.9 0,-562.1 l -1060.9,-1060.9"
         style="fill:url(#linearGradient21);fill-opacity:1;fill-rule:nonzero;stroke:none"
         transform="matrix(0.13333333,0,0,-0.13333333,0,4000)"
         clip-path="url(#clipPath21)" />
      <path
         id="path22"
         d="m 16422.2,16204.7 -1060.9,1060.8 567.7,567.8 1341.9,-1341.9 -286.7,-286.7 c -155.2,-155.2 -406.8,-155.2 -562,0"
         style="fill:url(#linearGradient24);fill-opacity:1;fill-rule:nonzero;stroke:none"
         transform="matrix(0.13333333,0,0,-0.13333333,0,4000)"
         clip-path="url(#clipPath24)" />
      <path
         id="path25"
         d="m 14638.7,16543 -567.7,-567.7 -1341.9,1341.8 286.7,286.7 c 155.2,155.3 406.8,155.3 562,0 L 14638.7,16543"
         style="fill:url(#linearGradient27);fill-opacity:1;fill-rule:nonzero;stroke:none"
         transform="matrix(0.13333333,0,0,-0.13333333,0,4000)"
         clip-path="url(#clipPath27)" />
      <path
         id="path28"
         d="m 14594.7,17215.6 c 206.6,266.1 604,266.1 810.6,0 140.7,-181.3 140.7,-441.4 0,-622.7 -206.6,-266.1 -604,-266.1 -810.6,0 -140.7,181.3 -140.7,441.4 0,622.7 z m -461.4,676.1 c -596.1,-525.2 -596.1,-1449.7 0,-1974.9 491.5,-433.1 1241.9,-433.1 1733.4,0 596.1,525.2 596.1,1449.7 0,1974.9 -491.5,433.1 -1241.9,433.1 -1733.4,0"
         style="fill:url(#linearGradient30);fill-opacity:1;fill-rule:nonzero;stroke:none"
         transform="matrix(0.13333333,0,0,-0.13333333,0,4000)"
         clip-path="url(#clipPath30)" />
    </g>
  </g>
</svg>
