<?xml version="1.0" encoding="utf-8"?>
<svg viewBox="0 0 480 480" xmlns="http://www.w3.org/2000/svg">
  <path style="fill:#FCB641;" d="M375.08,354.584c0-72.392-58.688-133.08-131.08-133.08s-131.08,61.688-131.08,134.08 c0,5.92,0.528,12.416,1.288,20.416h259.584C374.552,368,375.08,360.504,375.08,354.584z"/>
  <g>
    <path style="fill:#4D4D4D;" d="M240,144c-4.424,0-8-3.584-8-8V88c0-4.416,3.576-8,8-8c4.424,0,8,3.584,8,8v48 C248,140.416,244.424,144,240,144z"/>
    <path style="fill:#4D4D4D;" d="M240,192c-4.424,0-8-3.584-8-8v-16c0-4.416,3.576-8,8-8c4.424,0,8,3.584,8,8v16 C248,188.416,244.424,192,240,192z"/>
    <path style="fill:#4D4D4D;" d="M394.344,205.656c-2.048,0-4.096-0.784-5.656-2.344c-3.128-3.128-3.128-8.192,0-11.312 l29.256-29.256c3.128-3.128,8.184-3.128,11.312,0s3.128,8.192,0,11.312L400,203.312 C398.44,204.872,396.392,205.656,394.344,205.656z"/>
    <path style="fill:#4D4D4D;" d="M360.4,239.6c-2.048,0-4.096-0.784-5.656-2.344c-3.128-3.128-3.128-8.192,0-11.32l11.32-11.312 c3.128-3.12,8.184-3.12,11.312,0s3.128,8.192,0,11.32l-11.32,11.312C364.496,238.816,362.448,239.6,360.4,239.6z"/>
    <path style="fill:#4D4D4D;" d="M472,328h-24c-4.424,0-8-3.584-8-8s3.576-8,8-8h24c4.424,0,8,3.584,8,8S476.424,328,472,328z"/>
    <path style="fill:#4D4D4D;" d="M416,328h-16c-4.424,0-8-3.584-8-8s3.576-8,8-8h16c4.424,0,8,3.584,8,8S420.424,328,416,328z"/>
    <path style="fill:#4D4D4D;" d="M40,328H16c-4.424,0-8-3.584-8-8s3.576-8,8-8h24c4.424,0,8,3.584,8,8S44.424,328,40,328z"/>
    <path style="fill:#4D4D4D;" d="M88,328H72c-4.424,0-8-3.584-8-8s3.576-8,8-8h16c4.424,0,8,3.584,8,8S92.424,328,88,328z"/>
    <path style="fill:#4D4D4D;" d="M101.656,205.656c-2.048,0-4.096-0.784-5.656-2.344l-29.256-29.256 c-3.128-3.12-3.128-8.184,0-11.312c3.128-3.128,8.184-3.128,11.312,0L107.312,192c3.128,3.12,3.128,8.184,0,11.312 C105.752,204.872,103.704,205.656,101.656,205.656z"/>
    <path style="fill:#4D4D4D;" d="M135.6,239.6c-2.048,0-4.096-0.784-5.656-2.336l-11.32-11.312c-3.128-3.128-3.128-8.192,0-11.32 s8.184-3.12,11.312,0l11.32,11.312c3.128,3.128,3.128,8.192,0,11.32C139.696,238.816,137.648,239.6,135.6,239.6z"/>
  </g>
  <g>
    <path style="fill:#4D4D4D;" d="M472,368h-89.512c0.384-5.24,0.592-9.728,0.592-13.416c0-77.792-62.392-141.08-139.08-141.08 c-75.392,0-139.08,65.064-139.08,142.08c0,3.816,0.216,7.872,0.568,12.416H8c-4.424,0-8,3.584-8,8s3.576,8,8,8h106.208h259.576H472 c4.424,0,8-3.584,8-8S476.424,368,472,368z M121.52,368c-0.384-4.712-0.6-8.712-0.6-12.416c0-68.344,56.36-126.08,123.08-126.08 c67.864,0,123.08,56.112,123.08,125.08c0,3.592-0.2,8.016-0.624,13.416H121.52z"/>
  </g>
</svg>